<?xml version="1.0" encoding="UTF-8"?>
<!DOCTYPE svg PUBLIC "-//W3C//DTD SVG 1.1//EN" "http://www.w3.org/Graphics/SVG/1.1/DTD/svg11.dtd">
<svg xmlns="http://www.w3.org/2000/svg" version="1.1" width="720px" height="720px" style="shape-rendering:geometricPrecision; text-rendering:geometricPrecision; image-rendering:optimizeQuality; fill-rule:evenodd; clip-rule:evenodd" xmlns:xlink="http://www.w3.org/1999/xlink">
<g><path style="opacity:0.941" fill="#f2d884" d="M 504.5,96.5 C 484.83,87.2165 464.497,79.3832 443.5,73C 379.239,55.4437 315.906,58.277 253.5,81.5C 240.167,81.5 226.833,81.5 213.5,81.5C 295.251,39.2769 379.918,32.7769 467.5,62C 484.585,68.1358 500.919,75.8025 516.5,85C 511.338,87.6626 507.338,91.4959 504.5,96.5 Z"/></g>
<g><path style="opacity:0.827" fill="#eeb853" d="M 504.5,96.5 C 524.877,108.363 544.044,122.029 562,137.5C 562.667,140.833 562.667,144.167 562,147.5C 505.99,95.5333 439.49,68.8666 362.5,67.5C 326.374,67.6922 291.541,74.3589 258,87.5C 256.008,86.3353 254.175,85.002 252.5,83.5C 252.833,82.8333 253.167,82.1667 253.5,81.5C 315.906,58.277 379.239,55.4437 443.5,73C 464.497,79.3832 484.83,87.2165 504.5,96.5 Z"/></g>
<g><path style="opacity:0.762" fill="#e7b014" d="M 537.5,72.5 C 588.628,103.461 628.294,145.295 656.5,198C 655.303,199.52 653.803,200.687 652,201.5C 623.633,151.633 585.466,110.966 537.5,79.5C 536.425,77.1889 536.425,74.8555 537.5,72.5 Z"/></g>
<g><path style="opacity:0.92" fill="#f2d681" d="M 213.5,81.5 C 226.833,81.5 240.167,81.5 253.5,81.5C 253.167,82.1667 252.833,82.8333 252.5,83.5C 222.421,94.6908 195.421,110.691 171.5,131.5C 165.831,135.346 160.497,139.679 155.5,144.5C 147.5,144.5 139.5,144.5 131.5,144.5C 155.408,118.911 182.741,97.9109 213.5,81.5 Z"/></g>
<g><path style="opacity:0.8" fill="#eeb853" d="M 171.5,131.5 C 172.167,133.819 172.334,136.153 172,138.5C 123.988,179.833 92.8211,231.5 78.5,293.5C 76.139,293.326 73.8056,292.993 71.5,292.5C 77.9441,263.627 88.2774,236.293 102.5,210.5C 104.074,210.063 105.241,209.063 106,207.5C 119.614,184.292 136.114,163.292 155.5,144.5C 160.497,139.679 165.831,135.346 171.5,131.5 Z"/></g>
<g><path style="opacity:0.933" fill="#f0d17a" d="M 131.5,144.5 C 139.5,144.5 147.5,144.5 155.5,144.5C 136.114,163.292 119.614,184.292 106,207.5C 105.241,209.063 104.074,210.063 102.5,210.5C 97.6897,207.843 92.6897,205.676 87.5,204C 99.7159,182.294 114.383,162.461 131.5,144.5 Z"/></g>
<g><path style="opacity:0.969" fill="#e1ab3f" d="M 361.5,191.5 C 385.836,191.333 410.169,191.5 434.5,192C 421.636,226.924 408.97,261.924 396.5,297C 434.833,297.333 473.167,297.667 511.5,298C 507.223,309.943 498.89,317.277 486.5,320C 453.854,321.249 421.187,321.916 388.5,322C 379.167,347.333 369.833,372.667 360.5,398C 342.836,398.5 325.17,398.667 307.5,398.5C 316.071,372.856 325.071,347.356 334.5,322C 319.833,321.333 305.167,321.333 290.5,322C 268.232,349.607 242.232,372.94 212.5,392C 187.499,407 160.499,413 131.5,410C 95.6234,402.747 85.4568,382.58 101,349.5C 114.238,331.78 131.404,319.28 152.5,312C 170.976,305.371 189.976,301.038 209.5,299C 230.809,297.79 252.142,297.124 273.5,297C 303.421,262.252 332.755,227.086 361.5,191.5 Z M 369.5,222.5 C 370.043,222.56 370.376,222.893 370.5,223.5C 360.591,247.978 351.258,272.645 342.5,297.5C 332.161,297.666 321.828,297.5 311.5,297C 331.048,272.291 350.382,247.458 369.5,222.5 Z M 229.5,321.5 C 237.174,321.334 244.841,321.5 252.5,322C 233.557,346.798 209.557,364.798 180.5,376C 162.448,378.952 156.281,371.785 162,354.5C 169.977,341.202 181.477,332.369 196.5,328C 207.471,324.972 218.471,322.805 229.5,321.5 Z"/></g>
<g><path style="opacity:0.004" fill="#edb852" d="M 604.5,196.5 C 603.833,195.167 603.833,195.167 604.5,196.5 Z"/></g>
<g><path style="opacity:0.766" fill="#edb852" d="M 604.5,196.5 C 607.187,196.336 609.854,196.503 612.5,197C 657.984,268.728 671.484,346.228 653,429.5C 649.519,443.943 644.852,457.943 639,471.5C 636.863,470.521 635.029,469.188 633.5,467.5C 668.054,372.233 658.388,281.899 604.5,196.5 Z"/></g>
<g><path style="opacity:0.746" fill="#e7b014" d="M 40.5,247.5 C 42.8568,247.337 45.1902,247.503 47.5,248C 19.4749,329.264 21.6415,409.764 54,489.5C 58.1,498.867 62.6,508.033 67.5,517C 66,518.5 64.5,520 63,521.5C 39.1161,478.651 25.4494,432.651 22,383.5C 19.1604,336.878 25.327,291.545 40.5,247.5 Z"/></g>
<g><path style="opacity:0.752" fill="#e7b014" d="M 686.5,298.5 C 689.079,298.083 691.246,298.75 693,300.5C 707.844,392.139 689.344,476.139 637.5,552.5C 635.804,550.364 634.971,548.031 635,545.5C 683.842,469.792 701.009,387.458 686.5,298.5 Z"/></g>
<g><path style="opacity:0.975" fill="#e1ab3f" d="M 483.5,322.5 C 502.503,322.333 521.503,322.5 540.5,323C 564.116,331.065 572.95,347.232 567,371.5C 559.282,386.53 546.949,394.53 530,395.5C 516.872,395.126 505.872,390.126 497,380.5C 490.564,371.76 488.398,362.093 490.5,351.5C 484.72,350.271 479.053,350.771 473.5,353C 465.558,355.969 458.225,359.969 451.5,365C 426.812,386.02 413.146,412.687 410.5,445C 410.671,473.042 424.005,491.375 450.5,500C 457.065,501.846 463.731,503.18 470.5,504C 501.493,504.995 532.493,505.829 563.5,506.5C 560.323,518.94 552.323,526.106 539.5,528C 508.833,528.667 478.167,528.667 447.5,528C 419.205,526.68 393.538,518.013 370.5,502C 351.515,483.373 344.348,460.873 349,434.5C 358.201,397.294 379.034,368.46 411.5,348C 433.806,334.4 457.806,325.9 483.5,322.5 Z"/></g>
<g><path style="opacity:0.879" fill="#e6b652" d="M 94.5,489.5 C 87.8333,489.5 81.1667,489.5 74.5,489.5C 70.783,481.355 67.4496,473.022 64.5,464.5C 70.3025,463.307 75.8025,461.307 81,458.5C 85.4975,468.829 89.9975,479.162 94.5,489.5 Z"/></g>
<g><path style="opacity:0.913" fill="#e5b34d" d="M 74.5,489.5 C 81.1667,489.5 87.8333,489.5 94.5,489.5C 98.5,496.833 102.5,504.167 106.5,511.5C 107.399,514.395 108.733,517.062 110.5,519.5C 103.833,519.5 97.1667,519.5 90.5,519.5C 84.1521,510.143 78.8188,500.143 74.5,489.5 Z"/></g>
<g><path style="opacity:0.855" fill="#edb752" d="M 284.5,646.5 C 270.324,643.871 256.658,639.538 243.5,633.5C 232.343,628.089 221.343,622.422 210.5,616.5C 186.5,602.176 164.834,584.843 145.5,564.5C 132.625,550.405 120.958,535.405 110.5,519.5C 108.733,517.062 107.399,514.395 106.5,511.5C 108.371,511.141 109.871,510.141 111,508.5C 152.123,575.596 210.623,620.096 286.5,642C 285.733,643.47 285.067,644.97 284.5,646.5 Z"/></g>
<g><path style="opacity:0.952" fill="#e3ae46" d="M 90.5,519.5 C 97.1667,519.5 103.833,519.5 110.5,519.5C 120.958,535.405 132.625,550.405 145.5,564.5C 137.833,564.5 130.167,564.5 122.5,564.5C 110.287,550.617 99.6207,535.617 90.5,519.5 Z"/></g>
<g><path style="opacity:0.935" fill="#e3ae45" d="M 601.5,564.5 C 593.833,564.5 586.167,564.5 578.5,564.5C 580.909,562.098 582.909,559.431 584.5,556.5C 591.515,548.979 598.015,540.979 604,532.5C 608.38,536.386 612.88,540.053 617.5,543.5C 612.874,551.108 607.541,558.108 601.5,564.5 Z"/></g>
<g><path style="opacity:0.789" fill="#edb752" d="M 584.5,556.5 C 582.909,559.431 580.909,562.098 578.5,564.5C 563.126,580.716 546.126,594.882 527.5,607C 526.748,607.671 526.414,608.504 526.5,609.5C 489.424,634.085 448.757,649.418 404.5,655.5C 397.644,655.888 390.977,655.888 384.5,655.5C 383.699,653.958 383.366,652.292 383.5,650.5C 462.172,643.913 528.006,611.579 581,553.5C 582.518,554.163 583.685,555.163 584.5,556.5 Z"/></g>
<g><path style="opacity:0.955" fill="#e2ab41" d="M 122.5,564.5 C 130.167,564.5 137.833,564.5 145.5,564.5C 164.834,584.843 186.5,602.176 210.5,616.5C 200.167,616.5 189.833,616.5 179.5,616.5C 158.027,602.034 139.027,584.7 122.5,564.5 Z"/></g>
<g><path style="opacity:0.935" fill="#e2ab41" d="M 578.5,564.5 C 586.167,564.5 593.833,564.5 601.5,564.5C 585.016,584.488 566.182,601.822 545,616.5C 539.381,612.683 533.214,610.35 526.5,609.5C 526.414,608.504 526.748,607.671 527.5,607C 546.126,594.882 563.126,580.716 578.5,564.5 Z"/></g>
<g><path style="opacity:0.957" fill="#e2a93d" d="M 179.5,616.5 C 189.833,616.5 200.167,616.5 210.5,616.5C 221.343,622.422 232.343,628.089 243.5,633.5C 231.678,634.495 219.678,634.828 207.5,634.5C 197.79,628.985 188.457,622.985 179.5,616.5 Z"/></g>
<g><path style="opacity:0.75" fill="#e7b014" d="M 563.5,621.5 C 565.482,622.491 567.482,623.491 569.5,624.5C 529.956,656.935 484.956,678.768 434.5,690C 391.424,699.622 348.091,700.956 304.5,694C 292.863,692.241 281.53,689.408 270.5,685.5C 271.098,684.205 271.598,682.872 272,681.5C 272.725,680.941 273.558,680.608 274.5,680.5C 367.425,703.803 454.758,690.637 536.5,641C 545.921,634.968 554.921,628.468 563.5,621.5 Z"/></g>
<g><path style="opacity:0.926" fill="#e0a63a" d="M 243.5,633.5 C 256.658,639.538 270.324,643.871 284.5,646.5C 317.326,655.37 350.659,658.37 384.5,655.5C 390.977,655.888 397.644,655.888 404.5,655.5C 399.8,660.905 396.134,666.905 393.5,673.5C 327.396,679.414 265.396,666.414 207.5,634.5C 219.678,634.828 231.678,634.495 243.5,633.5 Z"/></g>
</svg>
